<mxfile host="65bd71144e">
    <diagram id="ZmRJ_ARcIgvyfihtIssW" name="Page-1">
        <mxGraphModel dx="774" dy="575" grid="1" gridSize="10" guides="1" tooltips="1" connect="1" arrows="1" fold="1" page="1" pageScale="1" pageWidth="850" pageHeight="1100" math="0" shadow="0">
            <root>
                <mxCell id="0"/>
                <mxCell id="1" parent="0"/>
                <mxCell id="2" value="&lt;br&gt;&lt;br&gt;&lt;br&gt;&lt;br&gt;&lt;br&gt;DB Mater&lt;br&gt;Elnaz" style="shape=actor;whiteSpace=wrap;html=1;fillColor=#f8cecc;strokeColor=#b85450;" parent="1" vertex="1">
                    <mxGeometry x="420" y="310" width="80" height="110" as="geometry"/>
                </mxCell>
                <mxCell id="3" value="My Library" style="ellipse;shape=cloud;whiteSpace=wrap;html=1;fillColor=#dae8fc;strokeColor=#6c8ebf;" parent="1" vertex="1">
                    <mxGeometry x="540" y="180" width="120" height="80" as="geometry"/>
                </mxCell>
                <mxCell id="4" value="My books" style="ellipse;shape=cloud;whiteSpace=wrap;html=1;fillColor=#dae8fc;strokeColor=#6c8ebf;" parent="1" vertex="1">
                    <mxGeometry x="220" y="170" width="120" height="80" as="geometry"/>
                </mxCell>
                <mxCell id="5" value="author" style="ellipse;shape=cloud;whiteSpace=wrap;html=1;fillColor=#fff2cc;strokeColor=#d6b656;" parent="1" vertex="1">
                    <mxGeometry x="110" y="170" width="70" height="70" as="geometry"/>
                </mxCell>
                <mxCell id="6" value="title" style="ellipse;shape=cloud;whiteSpace=wrap;html=1;fillColor=#fff2cc;strokeColor=#d6b656;" parent="1" vertex="1">
                    <mxGeometry x="80" y="90" width="70" height="70" as="geometry"/>
                </mxCell>
                <mxCell id="7" value="description" style="ellipse;shape=cloud;whiteSpace=wrap;html=1;fillColor=#fff2cc;strokeColor=#d6b656;" parent="1" vertex="1">
                    <mxGeometry x="110" y="30" width="70" height="70" as="geometry"/>
                </mxCell>
                <mxCell id="8" value="chapters&amp;nbsp;" style="ellipse;shape=cloud;whiteSpace=wrap;html=1;fillColor=#fff2cc;strokeColor=#d6b656;" parent="1" vertex="1">
                    <mxGeometry x="260" width="70" height="70" as="geometry"/>
                </mxCell>
                <mxCell id="9" value="chapters&amp;nbsp;" style="ellipse;shape=cloud;whiteSpace=wrap;html=1;fillColor=#fff2cc;strokeColor=#d6b656;" parent="1" vertex="1">
                    <mxGeometry x="340" y="10" width="70" height="70" as="geometry"/>
                </mxCell>
                <mxCell id="10" value="Date of purchase of the book" style="ellipse;shape=cloud;whiteSpace=wrap;html=1;fillColor=#fff2cc;strokeColor=#d6b656;" parent="1" vertex="1">
                    <mxGeometry x="380" y="80" width="70" height="70" as="geometry"/>
                </mxCell>
                <mxCell id="11" value="date&lt;br&gt;start/end reading date" style="ellipse;shape=cloud;whiteSpace=wrap;html=1;fillColor=#fff2cc;strokeColor=#d6b656;" parent="1" vertex="1">
                    <mxGeometry x="210" y="80" width="70" height="70" as="geometry"/>
                </mxCell>
                <mxCell id="12" value="price" style="ellipse;shape=cloud;whiteSpace=wrap;html=1;fillColor=#fff2cc;strokeColor=#d6b656;" parent="1" vertex="1">
                    <mxGeometry x="290" y="80" width="70" height="70" as="geometry"/>
                </mxCell>
                <mxCell id="13" value="Publisher" style="ellipse;shape=cloud;whiteSpace=wrap;html=1;fillColor=#fff2cc;strokeColor=#d6b656;" parent="1" vertex="1">
                    <mxGeometry x="180" width="70" height="70" as="geometry"/>
                </mxCell>
                <mxCell id="17" value="Shelf number" style="ellipse;shape=cloud;whiteSpace=wrap;html=1;fillColor=#fff2cc;strokeColor=#d6b656;" parent="1" vertex="1">
                    <mxGeometry x="570" y="90" width="70" height="70" as="geometry"/>
                </mxCell>
                <mxCell id="18" value="BookId" style="ellipse;shape=cloud;whiteSpace=wrap;html=1;fillColor=#fff2cc;strokeColor=#d6b656;" parent="1" vertex="1">
                    <mxGeometry x="340" y="140" width="70" height="70" as="geometry"/>
                </mxCell>
            </root>
        </mxGraphModel>
    </diagram>
    <diagram id="nxLmDFpmxV-x5t2cnU1N" name="Page-2">
        <mxGraphModel dx="774" dy="575" grid="1" gridSize="10" guides="1" tooltips="1" connect="1" arrows="1" fold="1" page="1" pageScale="1" pageWidth="850" pageHeight="1100" math="0" shadow="0">
            <root>
                <mxCell id="S16IUH8q7h0ZsMb76FpL-0"/>
                <mxCell id="S16IUH8q7h0ZsMb76FpL-1" parent="S16IUH8q7h0ZsMb76FpL-0"/>
                <mxCell id="S16IUH8q7h0ZsMb76FpL-2" value="Book" style="whiteSpace=wrap;html=1;align=center;fillColor=#dae8fc;strokeColor=#6c8ebf;" parent="S16IUH8q7h0ZsMb76FpL-1" vertex="1">
                    <mxGeometry x="180" y="200" width="100" height="60" as="geometry"/>
                </mxCell>
                <mxCell id="XFwWKkYpa4sdKjrxh0Q6-14" value="" style="edgeStyle=orthogonalEdgeStyle;rounded=0;orthogonalLoop=1;jettySize=auto;html=1;" parent="S16IUH8q7h0ZsMb76FpL-1" source="S16IUH8q7h0ZsMb76FpL-3" target="S16IUH8q7h0ZsMb76FpL-2" edge="1">
                    <mxGeometry relative="1" as="geometry"/>
                </mxCell>
                <mxCell id="S16IUH8q7h0ZsMb76FpL-3" value="Publisher" style="ellipse;whiteSpace=wrap;html=1;align=center;fillColor=#d5e8d4;strokeColor=#82b366;" parent="S16IUH8q7h0ZsMb76FpL-1" vertex="1">
                    <mxGeometry x="20" y="210" width="90" height="40" as="geometry"/>
                </mxCell>
                <mxCell id="S16IUH8q7h0ZsMb76FpL-5" value="author" style="ellipse;whiteSpace=wrap;html=1;align=center;fillColor=#d5e8d4;strokeColor=#82b366;" parent="S16IUH8q7h0ZsMb76FpL-1" vertex="1">
                    <mxGeometry x="330" y="120" width="100" height="40" as="geometry"/>
                </mxCell>
                <mxCell id="XFwWKkYpa4sdKjrxh0Q6-17" style="edgeStyle=orthogonalEdgeStyle;rounded=0;orthogonalLoop=1;jettySize=auto;html=1;entryX=0.5;entryY=1;entryDx=0;entryDy=0;" parent="S16IUH8q7h0ZsMb76FpL-1" source="S16IUH8q7h0ZsMb76FpL-6" target="S16IUH8q7h0ZsMb76FpL-2" edge="1">
                    <mxGeometry relative="1" as="geometry"/>
                </mxCell>
                <mxCell id="S16IUH8q7h0ZsMb76FpL-6" value="chapters&amp;nbsp;" style="ellipse;whiteSpace=wrap;html=1;align=center;fillColor=#d5e8d4;strokeColor=#82b366;" parent="S16IUH8q7h0ZsMb76FpL-1" vertex="1">
                    <mxGeometry x="190" y="300" width="90" height="40" as="geometry"/>
                </mxCell>
                <mxCell id="S16IUH8q7h0ZsMb76FpL-7" value="title" style="ellipse;whiteSpace=wrap;html=1;align=center;fillColor=#d5e8d4;strokeColor=#82b366;" parent="S16IUH8q7h0ZsMb76FpL-1" vertex="1">
                    <mxGeometry x="330" y="240" width="100" height="40" as="geometry"/>
                </mxCell>
                <mxCell id="S16IUH8q7h0ZsMb76FpL-8" value="description" style="ellipse;whiteSpace=wrap;html=1;align=center;fillColor=#d5e8d4;strokeColor=#82b366;" parent="S16IUH8q7h0ZsMb76FpL-1" vertex="1">
                    <mxGeometry x="300" y="295" width="90" height="30" as="geometry"/>
                </mxCell>
                <mxCell id="XFwWKkYpa4sdKjrxh0Q6-10" style="edgeStyle=orthogonalEdgeStyle;rounded=0;orthogonalLoop=1;jettySize=auto;html=1;entryX=0;entryY=0;entryDx=0;entryDy=0;" parent="S16IUH8q7h0ZsMb76FpL-1" source="S16IUH8q7h0ZsMb76FpL-9" target="S16IUH8q7h0ZsMb76FpL-2" edge="1">
                    <mxGeometry relative="1" as="geometry">
                        <mxPoint x="100" y="180" as="targetPoint"/>
                    </mxGeometry>
                </mxCell>
                <mxCell id="S16IUH8q7h0ZsMb76FpL-9" value="price" style="ellipse;whiteSpace=wrap;html=1;align=center;fillColor=#d5e8d4;strokeColor=#82b366;" parent="S16IUH8q7h0ZsMb76FpL-1" vertex="1">
                    <mxGeometry x="40" y="120" width="100" height="40" as="geometry"/>
                </mxCell>
                <mxCell id="08wPk7DQqOcbODKH1UtR-16" value="Put on the library shelf" style="shape=rhombus;double=1;perimeter=rhombusPerimeter;whiteSpace=wrap;html=1;align=center;fillColor=#008a00;strokeColor=#005700;fontColor=#ffffff;" parent="S16IUH8q7h0ZsMb76FpL-1" vertex="1">
                    <mxGeometry x="480" y="10" width="180" height="120" as="geometry"/>
                </mxCell>
                <mxCell id="08wPk7DQqOcbODKH1UtR-17" value="library" style="whiteSpace=wrap;html=1;align=center;fillColor=#1ba1e2;strokeColor=#006EAF;fontColor=#ffffff;" parent="S16IUH8q7h0ZsMb76FpL-1" vertex="1">
                    <mxGeometry x="590" y="220" width="110" height="40" as="geometry"/>
                </mxCell>
                <mxCell id="XFwWKkYpa4sdKjrxh0Q6-9" value="" style="edgeStyle=orthogonalEdgeStyle;rounded=0;orthogonalLoop=1;jettySize=auto;html=1;" parent="S16IUH8q7h0ZsMb76FpL-1" source="08wPk7DQqOcbODKH1UtR-18" target="S16IUH8q7h0ZsMb76FpL-2" edge="1">
                    <mxGeometry relative="1" as="geometry"/>
                </mxCell>
                <mxCell id="08wPk7DQqOcbODKH1UtR-18" value="BookId" style="ellipse;whiteSpace=wrap;html=1;align=center;fontStyle=4;fillColor=#d5e8d4;strokeColor=#82b366;" parent="S16IUH8q7h0ZsMb76FpL-1" vertex="1">
                    <mxGeometry x="190" y="110" width="100" height="40" as="geometry"/>
                </mxCell>
                <mxCell id="XFwWKkYpa4sdKjrxh0Q6-22" value="" style="edgeStyle=orthogonalEdgeStyle;rounded=0;orthogonalLoop=1;jettySize=auto;html=1;" parent="S16IUH8q7h0ZsMb76FpL-1" source="dqd5GUgWVGx6-iaclQYR-0" target="08wPk7DQqOcbODKH1UtR-17" edge="1">
                    <mxGeometry relative="1" as="geometry"/>
                </mxCell>
                <mxCell id="dqd5GUgWVGx6-iaclQYR-0" value="Shelf number" style="ellipse;whiteSpace=wrap;html=1;align=center;fontStyle=4;fillColor=#d5e8d4;strokeColor=#82b366;" parent="S16IUH8q7h0ZsMb76FpL-1" vertex="1">
                    <mxGeometry x="740" y="230" width="100" height="40" as="geometry"/>
                </mxCell>
                <mxCell id="XFwWKkYpa4sdKjrxh0Q6-21" value="" style="edgeStyle=orthogonalEdgeStyle;rounded=0;orthogonalLoop=1;jettySize=auto;html=1;" parent="S16IUH8q7h0ZsMb76FpL-1" source="XFwWKkYpa4sdKjrxh0Q6-0" target="08wPk7DQqOcbODKH1UtR-17" edge="1">
                    <mxGeometry relative="1" as="geometry"/>
                </mxCell>
                <mxCell id="XFwWKkYpa4sdKjrxh0Q6-0" value="BookId" style="ellipse;whiteSpace=wrap;html=1;align=center;fontStyle=4;fillColor=#d5e8d4;strokeColor=#82b366;" parent="S16IUH8q7h0ZsMb76FpL-1" vertex="1">
                    <mxGeometry x="600" y="310" width="100" height="40" as="geometry"/>
                </mxCell>
                <mxCell id="XFwWKkYpa4sdKjrxh0Q6-5" value="" style="edgeStyle=entityRelationEdgeStyle;fontSize=12;html=1;endArrow=ERmandOne;startArrow=ERmandOne;entryX=0;entryY=0.5;entryDx=0;entryDy=0;exitX=1;exitY=0.5;exitDx=0;exitDy=0;" parent="S16IUH8q7h0ZsMb76FpL-1" source="S16IUH8q7h0ZsMb76FpL-2" target="08wPk7DQqOcbODKH1UtR-16" edge="1">
                    <mxGeometry width="100" height="100" relative="1" as="geometry">
                        <mxPoint x="370" y="340" as="sourcePoint"/>
                        <mxPoint x="470" y="240" as="targetPoint"/>
                    </mxGeometry>
                </mxCell>
                <mxCell id="XFwWKkYpa4sdKjrxh0Q6-6" value="" style="edgeStyle=entityRelationEdgeStyle;fontSize=12;html=1;endArrow=ERmandOne;startArrow=ERmandOne;entryX=1;entryY=0.5;entryDx=0;entryDy=0;exitX=0.655;exitY=-0.015;exitDx=0;exitDy=0;exitPerimeter=0;" parent="S16IUH8q7h0ZsMb76FpL-1" source="08wPk7DQqOcbODKH1UtR-17" target="08wPk7DQqOcbODKH1UtR-16" edge="1">
                    <mxGeometry width="100" height="100" relative="1" as="geometry">
                        <mxPoint x="370" y="340" as="sourcePoint"/>
                        <mxPoint x="470" y="240" as="targetPoint"/>
                    </mxGeometry>
                </mxCell>
                <mxCell id="S16IUH8q7h0ZsMb76FpL-10" value="start/end reading" style="ellipse;whiteSpace=wrap;html=1;align=center;fillColor=#d5e8d4;strokeColor=#82b366;" parent="S16IUH8q7h0ZsMb76FpL-1" vertex="1">
                    <mxGeometry x="40" y="290" width="100" height="40" as="geometry"/>
                </mxCell>
                <mxCell id="XFwWKkYpa4sdKjrxh0Q6-25" value="" style="edgeStyle=orthogonalEdgeStyle;rounded=0;orthogonalLoop=1;jettySize=auto;html=1;entryX=0.132;entryY=1.057;entryDx=0;entryDy=0;entryPerimeter=0;exitX=0.988;exitY=0.275;exitDx=0;exitDy=0;exitPerimeter=0;" parent="S16IUH8q7h0ZsMb76FpL-1" source="S16IUH8q7h0ZsMb76FpL-10" target="S16IUH8q7h0ZsMb76FpL-2" edge="1">
                    <mxGeometry relative="1" as="geometry">
                        <mxPoint x="150" y="280" as="sourcePoint"/>
                        <mxPoint x="220" y="280" as="targetPoint"/>
                    </mxGeometry>
                </mxCell>
                <mxCell id="XFwWKkYpa4sdKjrxh0Q6-28" value="" style="edgeStyle=orthogonalEdgeStyle;rounded=0;orthogonalLoop=1;jettySize=auto;html=1;exitX=0.5;exitY=1;exitDx=0;exitDy=0;entryX=1;entryY=0;entryDx=0;entryDy=0;" parent="S16IUH8q7h0ZsMb76FpL-1" source="S16IUH8q7h0ZsMb76FpL-5" target="S16IUH8q7h0ZsMb76FpL-2" edge="1">
                    <mxGeometry relative="1" as="geometry">
                        <mxPoint x="400" y="200" as="sourcePoint"/>
                        <mxPoint x="470" y="200" as="targetPoint"/>
                    </mxGeometry>
                </mxCell>
                <mxCell id="XFwWKkYpa4sdKjrxh0Q6-31" value="" style="edgeStyle=orthogonalEdgeStyle;rounded=0;orthogonalLoop=1;jettySize=auto;html=1;entryX=1.004;entryY=0.897;entryDx=0;entryDy=0;entryPerimeter=0;" parent="S16IUH8q7h0ZsMb76FpL-1" target="S16IUH8q7h0ZsMb76FpL-2" edge="1">
                    <mxGeometry relative="1" as="geometry">
                        <mxPoint x="330" y="260" as="sourcePoint"/>
                        <mxPoint x="290" y="250" as="targetPoint"/>
                    </mxGeometry>
                </mxCell>
                <mxCell id="XFwWKkYpa4sdKjrxh0Q6-32" value="" style="edgeStyle=orthogonalEdgeStyle;rounded=0;orthogonalLoop=1;jettySize=auto;html=1;" parent="S16IUH8q7h0ZsMb76FpL-1" edge="1">
                    <mxGeometry relative="1" as="geometry">
                        <mxPoint x="310" y="295" as="sourcePoint"/>
                        <mxPoint x="270" y="260" as="targetPoint"/>
                    </mxGeometry>
                </mxCell>
            </root>
        </mxGraphModel>
    </diagram>
    <diagram id="6kGmIpIYqBZESDNd4O3s" name="Page-3">
        <mxGraphModel dx="774" dy="575" grid="1" gridSize="10" guides="1" tooltips="1" connect="1" arrows="1" fold="1" page="1" pageScale="1" pageWidth="850" pageHeight="1100" math="0" shadow="0">
            <root>
                <mxCell id="3V3fOZiEy-OUiI-_qJxr-0"/>
                <mxCell id="3V3fOZiEy-OUiI-_qJxr-1" parent="3V3fOZiEy-OUiI-_qJxr-0"/>
                <mxCell id="3V3fOZiEy-OUiI-_qJxr-2" value="Library" style="swimlane;fontStyle=0;childLayout=stackLayout;horizontal=1;startSize=26;fillColor=none;horizontalStack=0;resizeParent=1;resizeParentMax=0;resizeLast=0;collapsible=1;marginBottom=0;" parent="3V3fOZiEy-OUiI-_qJxr-1" vertex="1">
                    <mxGeometry x="130" y="160" width="140" height="104" as="geometry"/>
                </mxCell>
                <mxCell id="3V3fOZiEy-OUiI-_qJxr-3" value="bookId: int" style="text;strokeColor=none;fillColor=none;align=left;verticalAlign=top;spacingLeft=4;spacingRight=4;overflow=hidden;rotatable=0;points=[[0,0.5],[1,0.5]];portConstraint=eastwest;" parent="3V3fOZiEy-OUiI-_qJxr-2" vertex="1">
                    <mxGeometry y="26" width="140" height="26" as="geometry"/>
                </mxCell>
                <mxCell id="3V3fOZiEy-OUiI-_qJxr-4" value="bName: string" style="text;strokeColor=none;fillColor=none;align=left;verticalAlign=top;spacingLeft=4;spacingRight=4;overflow=hidden;rotatable=0;points=[[0,0.5],[1,0.5]];portConstraint=eastwest;" parent="3V3fOZiEy-OUiI-_qJxr-2" vertex="1">
                    <mxGeometry y="52" width="140" height="26" as="geometry"/>
                </mxCell>
                <mxCell id="3V3fOZiEy-OUiI-_qJxr-5" value="b: type" style="text;strokeColor=none;fillColor=none;align=left;verticalAlign=top;spacingLeft=4;spacingRight=4;overflow=hidden;rotatable=0;points=[[0,0.5],[1,0.5]];portConstraint=eastwest;" parent="3V3fOZiEy-OUiI-_qJxr-2" vertex="1">
                    <mxGeometry y="78" width="140" height="26" as="geometry"/>
                </mxCell>
            </root>
        </mxGraphModel>
    </diagram>
</mxfile>